Coordinates
version=1
nRows=12
nColumns=23
inDegrees=yes

Units are S.I. units (second, meters, Newtons, ...)
If the header above contains a line with 'inDegrees', this indicates whether rotational values are in degrees (yes) or radians (no).

endheader
time	pelvis_tilt	pelvis_list	pelvis_rotation	pelvis_tx	pelvis_ty	pelvis_tz	hip_flexion_r	hip_adduction_r	hip_rotation_r	knee_angle_r	knee_angle_r_beta	ankle_angle_r	subtalar_angle_r	mtp_angle_r	hip_flexion_l	hip_adduction_l	hip_rotation_l	knee_angle_l	knee_angle_l_beta	ankle_angle_l	subtalar_angle_l	mtp_angle_l
      0.00000000	    -13.31461146	     -7.13589015	    -15.59969314	      2.12208235	      0.94353708	      1.01923567	     27.01301499	     18.93912813	      9.81547816	     47.54167162	      0.82975870	     27.59846008	     -0.84172830	      0.00000000	     39.99874525	    -14.93582707	     -1.99448038	    128.49981752	      2.24274490	     -8.00598275	    -18.40176750	      0.00000000
      0.00666667	    -12.93978184	     -7.06221016	    -15.11546567	      2.12324954	      0.94917025	      1.01921340	     23.28364538	     17.96504457	     10.30114909	     45.06412852	      0.78651742	     27.94822532	      0.12945800	      0.00000000	     42.28874890	    -14.89552932	     -1.11481524	    127.33916028	      2.22248761	     -6.90541307	    -17.69048242	      0.00000000
      0.01333333	    -12.55861352	     -6.82414566	    -14.58345881	      2.12469045	      0.95449039	      1.01919100	     19.52332529	     16.79099375	     10.70693045	     42.33390469	      0.73886602	     28.08133524	      1.10474322	      0.00000000	     44.39630022	    -14.59713671	     -0.42527797	    126.02050846	      2.19947280	     -5.60618144	    -16.89301809	      0.00000000
      0.02000000	    -12.18597023	     -6.35633026	    -13.96642437	      2.12638546	      0.95953067	      1.01902026	     15.82431422	     15.32479095	     10.89339774	     39.43603351	      0.68828863	     27.99383779	      2.18886041	      0.00000000	     46.34789088	    -13.94171812	      0.02936427	    124.52192547	      2.17331759	     -4.26974610	    -16.13492912	      0.00000000
      0.02666667	    -12.04817595	     -5.59059452	    -13.29233338	      2.12821563	      0.96398213	      1.01876639	     12.50999864	     13.59056843	     10.80223601	     36.51619839	      0.63732789	     27.61909982	      3.22546944	      0.00000000	     48.43407360	    -12.93681806	      0.22679545	    122.85545878	      2.14423226	     -2.98154624	    -15.45476558	      0.00000000
      0.03333333	    -11.55138109	     -4.86319798	    -12.60556945	      2.13055173	      0.96899782	      1.01849650	      8.73625571	     11.75978135	     10.30430784	     33.29713726	      0.58114468	     26.72155669	      4.80220576	      0.00000000	     49.82672708	    -11.89226089	      0.21809003	    120.91488503	      2.11036286	     -1.70764442	    -14.96477448	      0.00000000
      0.04000000	    -11.40025413	     -3.88793740	    -11.85012050	      2.13295926	      0.97337467	      1.01816396	      5.47426222	      9.81602073	      9.48943306	     30.12931695	      0.52585578	     25.16883168	      5.93341314	      0.00000000	     51.49978966	    -10.58517219	      0.03177737	    118.80768498	      2.07358528	     -0.53099299	    -14.51407231	      0.00000000
      0.04666667	    -11.17983977	     -2.93812346	    -11.14244045	      2.13552811	      0.97786128	      1.01802061	      2.13776406	      7.98530357	      8.45665397	     26.86052196	      0.46880455	     22.85386708	      7.02257242	      0.00000000	     52.88181191	     -9.35781165	     -0.27860043	    116.49060446	      2.03314460	      0.57537717	    -14.16146558	      0.00000000
      0.05333333	    -11.11127718	     -1.94689276	    -10.40188542	      2.13818292	      0.98208765	      1.01792681	     -0.99051823	      6.28425825	      7.26388312	     23.58822186	      0.41169214	     19.80205483	      7.61220629	      0.00000000	     54.28681531	     -8.08158620	     -0.63343788	    113.99807070	      1.98964167	      1.59994655	    -13.83617090	      0.00000000
      0.06000000	    -11.21392518	     -1.02283774	     -9.71322337	      2.14068054	      0.98603792	      1.01797725	     -3.84814286	      4.85423601	      6.04044983	     20.41442539	      0.35629894	     16.00259469	      7.64921715	      0.00000000	     55.74039919	     -6.92297036	     -0.98523867	    111.35696704	      1.94354572	      2.51118612	    -13.58701954	      0.00000000
      0.06666667	    -11.80152703	     -0.11893528	     -9.06069542	      2.14284434	      0.98916838	      1.01810115	     -5.86936704	      3.61030267	      4.34028323	     17.78890087	      0.31047489	     11.72917804	      7.60040933	      0.00000000	     57.63471849	     -5.86138579	     -1.30873833	    108.60631470	      1.89553778	      3.27692273	    -13.34733040	      0.00000000
      0.07333333	    -11.72888600	      0.46933611	     -8.46954055	      2.14534845	      0.99327625	      1.01841300	     -8.91494960	      2.86017766	      3.60134492	     14.56349405	      0.25418092	      6.78251181	      6.11215872	      0.00000000	     58.53457086	     -5.07942354	     -1.57965882	    105.64825644	      1.84390992	      4.03378086	    -13.24165515	      0.00000000
